<svg width="21" height="21" viewBox="0 0 21 21" fill="none" xmlns="http://www.w3.org/2000/svg">
<g clip-path="url(#clip0_125_198)">
<path d="M11.5511 10.2L15.5036 6.2475C15.566 6.18505 15.6155 6.1109 15.6493 6.0293C15.6831 5.9477 15.7005 5.86025 15.7005 5.77192C15.7005 5.6836 15.6831 5.59614 15.6493 5.51455C15.6155 5.43295 15.566 5.3588 15.5036 5.29635C15.4411 5.2339 15.367 5.18436 15.2854 5.15056C15.2038 5.11676 15.1163 5.09936 15.028 5.09936C14.9397 5.09936 14.8522 5.11676 14.7706 5.15056C14.689 5.18436 14.6149 5.2339 14.5524 5.29635L10.5999 9.24885L6.6474 5.29635C6.58495 5.2339 6.51081 5.18436 6.42921 5.15056C6.34761 5.11676 6.26015 5.09936 6.17183 5.09936C6.0835 5.09936 5.99605 5.11676 5.91445 5.15056C5.83285 5.18436 5.75871 5.2339 5.69625 5.29635C5.6338 5.3588 5.58426 5.43295 5.55046 5.51455C5.51666 5.59614 5.49926 5.6836 5.49926 5.77192C5.49926 5.86025 5.51666 5.9477 5.55046 6.0293C5.58426 6.1109 5.6338 6.18505 5.69625 6.2475L9.64875 10.2L5.69625 14.1525C5.6338 14.215 5.58426 14.2891 5.55046 14.3707C5.51666 14.4523 5.49926 14.5398 5.49926 14.6281C5.49926 14.7164 5.51666 14.8039 5.55046 14.8855C5.58426 14.9671 5.6338 15.0412 5.69625 15.1036C5.75871 15.1661 5.83285 15.2156 5.91445 15.2494C5.99605 15.2832 6.0835 15.3006 6.17183 15.3006C6.26015 15.3006 6.34761 15.2832 6.42921 15.2494C6.51081 15.2156 6.58495 15.1661 6.6474 15.1036L10.5999 11.1511L14.5524 15.1036C14.6149 15.1661 14.689 15.2156 14.7706 15.2494C14.8522 15.2832 14.9397 15.3006 15.028 15.3006C15.1163 15.3006 15.2038 15.2832 15.2854 15.2494C15.367 15.2156 15.4411 15.1661 15.5036 15.1036C15.566 15.0412 15.6155 14.9671 15.6493 14.8855C15.6831 14.8039 15.7005 14.7164 15.7005 14.6281C15.7005 14.5398 15.6831 14.4523 15.6493 14.3707C15.6155 14.2891 15.566 14.215 15.5036 14.1525L11.5511 10.2ZM10.5999 20.4C7.89469 20.4 5.30028 19.3254 3.38741 17.4125C1.47454 15.4996 0.399902 12.9052 0.399902 10.2C0.399902 7.49479 1.47454 4.90038 3.38741 2.98751C5.30028 1.07464 7.89469 0 10.5999 0C13.3051 0 15.8995 1.07464 17.8124 2.98751C19.7253 4.90038 20.7999 7.49479 20.7999 10.2C20.7999 12.9052 19.7253 15.4996 17.8124 17.4125C15.8995 19.3254 13.3051 20.4 10.5999 20.4Z" fill="#181818" fill-opacity="0.79"/>
</g>
<defs>
<clipPath id="clip0_125_198">
<rect width="20.4" height="20.4" fill="white" transform="translate(0.399902)"/>
</clipPath>
</defs>
</svg>
