<svg width="24" height="24" viewBox="0 0 24 24" fill="none" xmlns="http://www.w3.org/2000/svg">
<path d="M19.8551 8.85439C21.592 13.1928 19.4833 18.1175 15.1449 19.8544C10.8065 21.5913 5.88182 19.4825 4.14489 15.1442C2.40797 10.8058 4.51673 5.88109 8.85511 4.14417L9.48408 5.71519C8.0064 6.30694 6.78452 7.40051 6.03312 8.80376C5.28173 10.207 5.04889 11.8302 5.37552 13.3881C5.70215 14.946 6.56736 16.3389 7.81911 17.3222C9.07087 18.3055 10.6291 18.8162 12.22 18.7645C13.811 18.7129 15.3328 18.1023 16.5182 17.0399C17.7036 15.9776 18.4766 14.5314 18.7016 12.9556C18.9265 11.3799 18.5889 9.7752 17.7481 8.42361C16.9074 7.07202 15.6171 6.05996 14.1042 5.56527L13.0986 7.91377L11.2116 3.2007L15.9247 1.31377L14.7721 4.00547C15.9177 4.40152 16.9647 5.03958 17.8418 5.87627C18.7189 6.71297 19.4055 7.72868 19.8551 8.85439Z" fill="black"/>
<path fill-rule="evenodd" clip-rule="evenodd" d="M11.5756 7.76855C10.3413 7.76855 9.15765 8.25885 8.28491 9.13159C7.41217 10.0043 6.92188 11.188 6.92188 12.4223C6.92188 13.6565 7.41217 14.8402 8.28491 15.7129C9.15765 16.5856 10.3413 17.0759 11.5756 17.0759C12.8098 17.0759 13.9935 16.5856 14.8662 15.7129C15.739 14.8402 16.2293 13.6565 16.2293 12.4223C16.2293 11.188 15.739 10.0043 14.8662 9.13159C13.9935 8.25885 12.8098 7.76855 11.5756 7.76855ZM7.5894 12.4223C7.5894 11.3651 8.00937 10.3512 8.75692 9.6036C9.50447 8.85605 10.5184 8.43608 11.5756 8.43608C12.6328 8.43608 13.6467 8.85605 14.3942 9.6036C15.1418 10.3512 15.5617 11.3651 15.5617 12.4223C15.5617 13.4795 15.1418 14.4933 14.3942 15.2409C13.6467 15.9885 12.6328 16.4084 11.5756 16.4084C10.5184 16.4084 9.50447 15.9885 8.75692 15.2409C8.00937 14.4933 7.5894 13.4795 7.5894 12.4223ZM9.84493 13.6266C9.81897 13.5877 9.78553 13.5544 9.74654 13.5286C9.70755 13.5029 9.66382 13.4851 9.61789 13.4765C9.57196 13.4678 9.52476 13.4684 9.47906 13.4782C9.43336 13.488 9.39007 13.5068 9.35174 13.5335C9.3134 13.5603 9.28079 13.5944 9.25581 13.6339C9.23082 13.6734 9.21397 13.7175 9.20625 13.7636C9.19852 13.8097 9.20007 13.8569 9.2108 13.9024C9.22153 13.9479 9.24123 13.9907 9.26875 14.0285C9.5277 14.4004 9.87271 14.7041 10.2744 14.9138C10.676 15.1235 11.1225 15.2329 11.5756 15.2329C12.5312 15.2329 13.3744 14.7558 13.8824 14.0285C13.9334 13.9521 13.9525 13.8586 13.9354 13.7683C13.9184 13.678 13.8666 13.5979 13.7912 13.5453C13.7158 13.4927 13.6228 13.4717 13.5321 13.4869C13.4414 13.5022 13.3603 13.5523 13.3062 13.6266C13.112 13.9056 12.8532 14.1335 12.5518 14.2908C12.2505 14.4482 11.9155 14.5303 11.5756 14.5302C11.2356 14.5303 10.9007 14.4482 10.5993 14.2908C10.298 14.1335 10.0392 13.9056 9.84493 13.6266ZM10.0824 11.9655C10.2455 11.9655 10.4019 11.9007 10.5172 11.7854C10.6325 11.6701 10.6973 11.5138 10.6973 11.3507C10.6973 11.1876 10.6325 11.0313 10.5172 10.916C10.4019 10.8007 10.2455 10.7359 10.0824 10.7359C9.91936 10.7359 9.76298 10.8007 9.64768 10.916C9.53238 11.0313 9.4676 11.1876 9.4676 11.3507C9.4676 11.5138 9.53238 11.6701 9.64768 11.7854C9.76298 11.9007 9.91936 11.9655 10.0824 11.9655ZM13.6835 11.3507C13.6835 11.5138 13.6188 11.6701 13.5035 11.7854C13.3882 11.9007 13.2318 11.9655 13.0687 11.9655C12.9057 11.9655 12.7493 11.9007 12.634 11.7854C12.5187 11.6701 12.4539 11.5138 12.4539 11.3507C12.4539 11.1876 12.5187 11.0313 12.634 10.916C12.7493 10.8007 12.9057 10.7359 13.0687 10.7359C13.2318 10.7359 13.3882 10.8007 13.5035 10.916C13.6188 11.0313 13.6835 11.1876 13.6835 11.3507Z" fill="black"/>
</svg>
